<?xml version="1.0" encoding="utf-8"?>
<!-- Generator: Adobe Illustrator 23.0.0, SVG Export Plug-In . SVG Version: 6.00 Build 0)  -->
<svg version="1.1" id="Layer_1" xmlns="http://www.w3.org/2000/svg" xmlns:xlink="http://www.w3.org/1999/xlink" x="0px" y="0px"
	 viewBox="0 0 798 1111.2" style="enable-background:new 0 0 798 1111.2;" xml:space="preserve">
<style type="text/css">
	.st0{fill:#FFFFFF;}
	.st1{fill:none;}
	.st2{font-family:'Helvetica';}
	.st3{font-size:58px;}
	.st4{fill:#F998F9;}
</style>
<path d="M73.3,373.9c0-179.4,147.1-323.6,326.1-321C574.1,55.5,718,199.2,715.7,378.5c-2.3,175.6-146.7,319-325.5,316.8
	C216.1,693.1,73.2,551.2,73.3,373.9z M457.2,350.9c0.6-6.1,1.4-12.5,1.8-19c0.2-2.6,1.5-3,3.6-2.9c12.4,0.8,23.6,4.4,33,12.8
	c10.1,9,15.8,20.5,19.8,33.1c4.8,15,4.5,30.5,4.5,46c0,3.6-1.1,4.8-4.6,4.8c-60.5-0.1-121-0.1-181.5,0c-2.9,0-3.9-0.8-3.8-3.8
	c0.3-8.7,0.5-17.4,0.5-26.1c0-68.4,0-136.8,0.1-205.2c0-3.6-1-4.5-4.5-4.5c-49.6,0.1-99.1,0.1-148.7,0c-2.6,0-4.3,0.7-6,2.7
	c-54.8,67.9-76.2,145.3-63,231.4c9.7,63.2,38,117.7,84.5,161.7c72.7,68.8,159.1,94.2,257.4,76.4c60-10.9,111.2-39.7,153.4-83.8
	c47-49.1,73.4-107.8,79.7-175.4c2.6-28.3,1-56.5-5-84.3c-14-65.1-46-119.8-97.2-162.4c-68.9-57.3-148.3-78.4-236.6-63.9
	c-54.4,8.9-101.9,32.7-143.1,69.2c-0.8,0.7-1.6,1.6-3,3.1c2.1,0,3.2,0,4.3,0c54.8,0.2,109.7,0.4,164.5,0.6c5.2,0,5.2,0,5.2,5.2
	c0,75.9,0,151.8,0,227.7c0,5,0,5,5,5c38.4,0,76.8,0,115.1,0c0.9,0,1.9,0.3,2.5-0.1c0.9-0.5,2.3-1.5,2.3-2.4c0-3-0.2-6.1-0.7-9.2
	c-2.4-14.1-9-25.5-22.5-31.6C469,353.8,463.3,352.8,457.2,350.9z"/>
<path class="st0" d="M457.2,350.9c6.1,1.8,11.9,2.9,17,5.2c13.5,6.1,20.1,17.5,22.5,31.6c0.5,3,0.7,6.1,0.7,9.2
	c0,0.8-1.3,1.8-2.3,2.4c-0.7,0.4-1.7,0.1-2.5,0.1c-38.4,0-76.8,0-115.1,0c-5,0-5,0-5-5c0-75.9,0-151.8,0-227.7c0-5.2,0-5.2-5.2-5.2
	c-54.8-0.2-109.7-0.4-164.5-0.6c-1.1,0-2.2,0-4.3,0c1.4-1.5,2.2-2.3,3-3.1c41.2-36.6,88.7-60.3,143.1-69.2
	c88.4-14.4,167.7,6.6,236.6,63.9c51.2,42.6,83.2,97.2,97.2,162.4c6,27.9,7.6,56,5,84.3c-6.3,67.6-32.7,126.3-79.7,175.4
	c-42.2,44.1-93.4,72.9-153.4,83.8c-98.3,17.8-184.8-7.6-257.4-76.4c-46.5-44-74.8-98.5-84.5-161.8c-13.2-86.1,8.2-163.5,63-231.4
	c1.6-2,3.4-2.7,6-2.7c49.6,0.1,99.1,0.1,148.7,0c3.5,0,4.6,0.9,4.5,4.5c-0.1,68.4-0.1,136.8-0.1,205.2c0,8.7-0.2,17.4-0.5,26.1
	c-0.1,3,0.9,3.8,3.8,3.8c60.5-0.1,121-0.1,181.5,0c3.5,0,4.6-1.2,4.6-4.8c0-15.5,0.3-31-4.5-46c-4-12.6-9.8-24.1-19.8-33.1
	c-9.4-8.4-20.6-12-33-12.8c-2.1-0.1-3.4,0.2-3.6,2.9C458.5,338.4,457.8,344.9,457.2,350.9z M545.4,503c-0.6-1.4-0.7-1.9-1-2.3
	c-14.5-22.5-34.8-37.4-60.7-43.6c-16-3.8-30.8-0.3-41.9,12.5c-4.4,5-7.2,11.3-10.7,17c-3.3,5.4-6.2,11.2-10.2,16.1
	c-4.8,5.8-11,7-17.6,3.4c-5.5-3-10.8-6.9-15.2-11.3c-9.5-9.6-19.8-18-31.8-24.4c-24.9-13.2-50-10.2-71.1,8.4
	c-12.5,11-21.4,24.6-28.3,39.6c-2.6,5.5-4.6,11.2-6.9,17c1.3,0.5,2,0.8,2.7,0.9c33.5,7.7,67.3,12.7,101.7,14
	c25.5,0.9,50.9-0.3,76.1-4.2c31.5-4.8,62-13.3,90.3-28.2C529.2,513.6,537.2,508,545.4,503z M567.6,277.4
	c-6.2-12.9-12.2-25.3-18.2-37.7c3.9-2.8,7.4-5.3,11-8c8.6,8.3,17,16.6,24.8,24.1c5-4.9,9.5-9.4,13.8-13.6
	c-7.7-8-15.6-16.4-23.6-24.8c3.5-4.6,7.1-9.5,11-14.6c-6-3.7-11.4-7.1-17-10.6c-1.4,1.9-2.6,3.6-3.9,5.2c-1.4,1.7-2.7,3.5-4.2,5.2
	c-18,20.6-39.2,33.6-68.1,29c-26.2-4.2-46.4-16.6-59.1-40.3c-0.5-0.8-1-1.6-1.6-2.6c-6.1,2.4-12,4.7-18.8,7.3
	c4.1,6.9,8,13.4,12.1,20.1c-8.3,5.9-16.8,12.1-25.6,18.3c4,5.6,7.7,10.8,11.6,16.3c9.8-6.9,19.2-13.7,28.6-20.3
	c5,3.4,9.8,6.6,14.7,9.9c-5.8,11.6-11.5,22.9-17.3,34.4c6.2,3.1,11.9,5.9,17.7,8.9c0.8-1.5,1.5-2.6,2.1-3.8
	c4.9-9.8,9.8-19.6,14.8-29.3c0.5-1,2.1-2.4,3-2.2c5.9,1.1,11.7,2.4,17.9,3.8c0.2,2.8,0.4,5.7,0.5,8.7c0.2,9.1,0.2,18.2,0.5,27.3
	c0,1.3,1.3,3.7,2.1,3.7c5.8,0.3,11.7,0.2,17.5,0.2c0-13.8,0-26.5,0-39.4c4.8-1.1,9.8-2,14.7-3.4c2.4-0.7,3.3,0,4.2,2
	c2.3,4.9,4.7,9.7,7,14.6c3.3,6.7,6.5,13.4,9.9,20.3C555.8,283.1,561.5,280.4,567.6,277.4z M254.1,548.1c-0.1,0.2-0.2,0.5-0.3,0.7
	c0.6,0.5,1.3,1,2,1.5c13.8,9,27.4,18.3,41.4,27c25.2,15.8,51.4,29.8,80.4,37.9c22.5,6.3,45.2,8.1,67.9,0.8
	c22.2-7.1,39.4-21.3,54.3-38.5c17.6-20.3,30.5-43.7,44.6-66.3c0.2-0.3,0.2-0.6,0.4-1.5c-1.3,0.8-2.2,1.3-3,1.9
	c-5.5,4.1-11.2,8-16.6,12.3c-17.9,14.3-38,24.4-60,30.6c-33,9.2-66.6,11.5-100.7,10.2c-32.8-1.3-65-5.9-96.9-13.6
	C263.1,550,258.6,549.1,254.1,548.1z M234.6,213.1c-23.8,0-43.3,19.1-43.4,42.5c-0.1,24.4,19.1,43.9,43.1,43.9
	c23.7,0,43.2-19.4,43.3-43.1C277.9,232.7,258.4,213.1,234.6,213.1z"/>
<path d="M545.4,503c-8.2,5-16.1,10.6-24.7,15.1c-28.4,14.9-58.8,23.3-90.3,28.2c-25.2,3.9-50.6,5.1-76.1,4.2
	c-34.4-1.3-68.2-6.3-101.7-14c-0.7-0.2-1.4-0.5-2.7-0.9c2.3-5.8,4.4-11.5,6.9-17c6.9-15,15.8-28.6,28.3-39.6
	c21.1-18.6,46.1-21.6,71.1-8.4c11.9,6.3,22.2,14.7,31.8,24.4c4.4,4.5,9.7,8.3,15.2,11.3c6.7,3.6,12.8,2.4,17.6-3.4
	c4-4.9,6.8-10.7,10.2-16.1c3.5-5.7,6.4-12,10.7-17c11.1-12.9,26-16.4,41.9-12.5c26,6.2,46.2,21,60.7,43.6
	C544.6,501,544.8,501.5,545.4,503z M522.3,498.3c-9.9-10.1-20.8-17.8-33.4-22.7c-20.5-8-33.9-2.1-43,17.8c-3,6.5-6.6,13-11.1,18.6
	c-10.1,12.8-25.6,16.2-40,8.4c-6.6-3.5-12.8-8.4-18.1-13.6c-8.7-8.4-17.6-16.5-28.5-22c-15.2-7.7-30.3-8.8-45.1,1
	c-14.1,9.3-23,22.9-30.6,37.8c1.1,0.3,1.9,0.6,2.7,0.7c37.1,7.2,74.6,11.1,112.5,9.5c32.5-1.4,64.2-6.5,95-17.3
	C496.3,511.8,509.4,506.1,522.3,498.3z"/>
<path d="M567.6,277.4c-6.1,3-11.8,5.7-18,8.7c-3.4-6.9-6.7-13.6-9.9-20.3c-2.4-4.9-4.8-9.7-7-14.6c-0.9-2-1.8-2.7-4.2-2
	c-4.9,1.4-10,2.4-14.7,3.4c0,12.9,0,25.7,0,39.4c-5.8,0-11.6,0.1-17.5-0.2c-0.8,0-2.1-2.4-2.1-3.7c-0.3-9.1-0.3-18.2-0.5-27.3
	c-0.1-2.9-0.3-5.8-0.5-8.6c-6.1-1.4-12-2.8-17.9-3.8c-0.9-0.1-2.4,1.2-3,2.2c-5,9.7-9.9,19.5-14.8,29.3c-0.6,1.2-1.3,2.3-2.1,3.8
	c-5.9-2.9-11.5-5.8-17.7-8.9c5.8-11.5,11.5-22.9,17.3-34.4c-4.9-3.3-9.6-6.5-14.7-9.9c-9.4,6.6-18.8,13.4-28.6,20.3
	c-3.9-5.5-7.6-10.7-11.6-16.3c8.8-6.3,17.3-12.4,25.6-18.3c-4.1-6.8-8-13.2-12.1-20.1c6.8-2.6,12.7-4.9,18.8-7.3
	c0.6,0.9,1.1,1.7,1.6,2.6c12.8,23.7,33,36.1,59.1,40.3c28.9,4.6,50.1-8.4,68.1-29c1.5-1.7,2.8-3.4,4.2-5.2c1.3-1.6,2.5-3.3,3.9-5.2
	c5.6,3.5,11,6.8,17,10.6c-3.8,5.1-7.5,9.9-11,14.6c8,8.4,16,16.8,23.6,24.8c-4.3,4.2-8.8,8.7-13.8,13.6
	c-7.7-7.5-16.2-15.8-24.8-24.1c-3.7,2.6-7.1,5.1-11,8C555.3,252.1,561.3,264.5,567.6,277.4z"/>
<path d="M254.1,548.1c4.5,1,8.9,1.9,13.4,3c31.8,7.8,64.1,12.4,96.9,13.6c34.1,1.3,67.8-1,100.7-10.2c22-6.1,42.1-16.2,60-30.6
	c5.4-4.3,11-8.2,16.6-12.3c0.8-0.6,1.7-1.1,3-1.9c-0.2,0.9-0.2,1.2-0.4,1.5c-14.1,22.6-27.1,46-44.6,66.3
	c-14.9,17.2-32.1,31.5-54.3,38.5c-22.7,7.2-45.4,5.5-67.9-0.8c-28.9-8.1-55.1-22-80.4-37.9c-14-8.8-27.6-18-41.4-27
	c-0.7-0.5-1.3-1-2-1.5C253.9,548.6,254,548.4,254.1,548.1z M321.8,575.4c1,0.9,1.2,1.2,1.5,1.4c20.2,11.3,41.1,21.2,63.7,26.6
	c20.5,4.9,40.9,5.4,60.8-2.9c18.2-7.6,32-20.8,44.4-35.7c1.8-2.2,3.5-4.4,5.2-6.6C440.7,581.9,381.9,581.3,321.8,575.4z"/>
<path d="M234.6,213.1c23.7,0,43.2,19.6,43.1,43.3c-0.1,23.7-19.6,43.1-43.3,43.1c-24.1,0-43.2-19.5-43.2-43.9
	C191.3,232.2,210.9,213.1,234.6,213.1z M258.5,256.5c0.1-13.6-10.6-24.5-24.1-24.5c-13,0-24.3,11.3-24.3,24.3
	c0,13.2,10.9,24.1,24.2,24.2C247.9,280.5,258.4,270,258.5,256.5z"/>
<path class="st0" d="M522.3,498.3c-12.8,7.7-26,13.5-39.6,18.2c-30.8,10.7-62.5,15.9-95,17.3c-37.9,1.7-75.3-2.2-112.5-9.5
	c-0.8-0.2-1.6-0.4-2.7-0.7c7.6-14.9,16.5-28.5,30.6-37.8c14.8-9.8,29.9-8.7,45.1-1c10.9,5.5,19.7,13.6,28.5,22
	c5.4,5.2,11.5,10.1,18.1,13.6c14.4,7.7,29.8,4.4,40-8.4c4.4-5.6,8.1-12,11.1-18.6c9.1-20,22.5-25.8,43-17.8
	C501.5,480.5,512.3,488.2,522.3,498.3z"/>
<path class="st0" d="M321.8,575.4c60.1,5.9,118.9,6.4,175.5-17.2c-1.7,2.2-3.4,4.5-5.2,6.6c-12.4,14.9-26.1,28.1-44.4,35.7
	c-19.9,8.3-40.3,7.8-60.8,2.9c-22.6-5.4-43.5-15.3-63.7-26.6C323,576.7,322.8,576.4,321.8,575.4z"/>
<path class="st0" d="M258.5,256.5c-0.1,13.6-10.6,24-24.2,23.9c-13.3-0.1-24.2-10.9-24.2-24.2c0-13,11.3-24.3,24.3-24.3
	C247.8,232,258.5,242.9,258.5,256.5z"/>
<rect x="-167.1" y="735.4" class="st1" width="1134.4" height="419.6"/>
<text transform="matrix(1 0 0 1 33.7242 777.0824)"><tspan x="0" y="0" class="st2 st3">egodeadstudios</tspan><tspan x="409.6" y="0" class="st4 st2 st3">@</tspan><tspan x="468.4" y="0" class="st2 st3">gmail.com </tspan><tspan x="191.8" y="69.6" class="st2 st3"> </tspan><tspan x="207.9" y="69.6" class="st4 st2 st3">@</tspan><tspan x="266.8" y="69.6" class="st2 st3">Ego_Dead</tspan></text>
</svg>
