<?xml version="1.0" encoding="utf-8"?>
<!-- Generator: Adobe Illustrator 23.0.0, SVG Export Plug-In . SVG Version: 6.00 Build 0)  -->
<svg version="1.1" id="Layer_1" xmlns="http://www.w3.org/2000/svg" xmlns:xlink="http://www.w3.org/1999/xlink" x="0px" y="0px"
	 viewBox="0 0 1366 768" style="enable-background:new 0 0 1366 768;" xml:space="preserve">
<style type="text/css">
	.st0{fill:#00FF2A;}
	.st1{fill:#FFB3E0;}
	.st2{fill:#FFF200;}
</style>
<g>
	<path d="M248.77,486.4c0,4.35-1.33,7.87-3.98,10.56c-2.65,2.69-6.08,4.04-10.28,4.04c-2.07,0-4.53-0.52-7.37-1.56
		c-2.33-0.84-3.85-1.26-4.56-1.26c-1.23,0-2.04,0.47-2.42,1.41c-0.39,0.94-0.68,1.41-0.87,1.41c-0.39,0-0.58-0.23-0.58-0.69
		c0-0.39,0.05-1.01,0.16-1.86c0.15-1.24,0.23-3.39,0.23-6.46c0-0.13,0-0.46,0-0.98s0-1.24,0-2.16v-1.66c0-0.72,0.16-1.08,0.49-1.08
		c0.39,0,0.68,0.49,0.87,1.46c0.58,3.44,2.23,6.31,4.94,8.61c2.71,2.3,5.75,3.45,9.11,3.45c2.13,0,3.86-0.67,5.18-2
		c1.32-1.33,1.99-3.06,1.99-5.2c0-1.69-0.62-3.11-1.85-4.28c-0.91-0.84-3.34-1.91-7.3-3.21c-4.86-1.62-8.38-3.58-10.56-5.89
		c-2.17-2.3-3.26-5.24-3.26-8.8c0-3.83,1.3-7.07,3.89-9.73c2.59-2.66,5.77-3.99,9.53-3.99c1.43,0,3.89,0.45,7.39,1.36
		c0.52,0.13,0.91,0.2,1.17,0.2c1.43,0,2.5-0.88,3.21-2.63c0.13-0.32,0.29-0.49,0.49-0.49c0.45,0,0.68,0.39,0.68,1.17l-0.1,1.85
		c-0.07,0.26-0.1,0.71-0.1,1.36c0,2.66,0.16,5.38,0.49,8.17v0.49c0,0.52-0.19,0.78-0.58,0.78c-0.33,0-0.58-0.29-0.78-0.88
		c-1.88-6.62-5.71-9.92-11.48-9.92c-2.14,0-3.91,0.58-5.3,1.75c-1.4,1.17-2.09,2.66-2.09,4.47c0,1.69,0.58,3.02,1.75,3.99
		c1.17,0.97,3.44,2.08,6.81,3.31c5.9,2.08,9.89,4.15,11.97,6.23C247.73,479.82,248.77,482.7,248.77,486.4z"/>
	<path d="M295.18,494.67c0,0.53-0.52,1.25-1.56,2.17c-2.79,2.57-6.23,3.85-10.31,3.85c-2.66,0-4.59-0.56-5.79-1.67
		c-1.2-1.12-2-3.12-2.38-6.01c-2.92,5.32-6.91,7.98-11.97,7.98c-2.79,0-5.04-0.88-6.76-2.63s-2.58-4.02-2.58-6.81
		c0-8.17,7.01-13,21.01-14.5v-2.04c0-6.48-0.23-10.47-0.68-11.97l-0.1-0.49c-0.91-3.24-3.21-4.86-6.91-4.86
		c-2.14,0-3.86,0.62-5.16,1.85c-1.3,1.23-1.95,2.43-1.95,3.6c0,0.65,0.78,1.04,2.34,1.17c2.34,0.2,3.5,1.62,3.5,4.28
		c0,1.43-0.47,2.61-1.41,3.55c-0.94,0.94-2.16,1.41-3.65,1.41c-1.88,0-3.42-0.57-4.62-1.7c-1.2-1.13-1.8-2.58-1.8-4.33
		c0-2.79,1.39-5.32,4.18-7.59c2.79-2.27,6.45-3.41,10.99-3.41c6.74,0,11.45,1.2,14.11,3.6c2.14,2.01,3.21,5.51,3.21,10.51v16.64
		c0,3.24,0.03,5.12,0.1,5.64c0.32,2.72,1.26,4.09,2.82,4.09c1.1,0,2.46-0.78,4.09-2.34c0.32-0.32,0.58-0.49,0.78-0.49
		C295.01,494.18,295.18,494.35,295.18,494.67z M274.84,483.09v-4.77c-6.29,1.23-9.44,4.8-9.44,10.7c0,4.54,1.56,6.81,4.67,6.81
		c1.75,0,2.98-0.97,3.7-2.92C274.49,490.97,274.84,487.7,274.84,483.09z"/>
	<path d="M346.25,499.24c0,0.52-0.81,0.78-2.43,0.78c-0.13,0-0.97,0-2.53,0s-3.83,0-6.81,0h-3.11H323c-0.91,0-1.36-0.24-1.36-0.73
		c0-0.42,0.38-0.64,1.15-0.64h0.76c1.65,0,2.62-0.21,2.91-0.64c0.29-0.42,0.43-1.87,0.43-4.35V474.8c0-6.97-0.45-11.15-1.34-12.52
		c-0.77-1.17-2.14-1.76-4.12-1.76s-3.61,0.61-4.88,1.84c-1.28,1.23-1.92,2.78-1.92,4.66v29.41c0.13,0.78,0.4,1.28,0.83,1.51
		c0.42,0.23,1.47,0.37,3.16,0.44c0.52,0,0.78,0.2,0.78,0.58c0,0.39-0.23,0.61-0.68,0.68c-0.45,0.07-2.08,0.1-4.86,0.1
		c-2.79,0-5.09,0.03-6.91,0.1c-3.57,0.13-7.2,0.19-10.9,0.19c-0.78,0-1.17-0.23-1.17-0.68c0-0.52,0.99-0.78,2.97-0.78
		c1.98,0,3.13-0.39,3.45-1.16l0.29-1.36v-22.32c0-6.27-0.07-9.54-0.19-9.8c-0.19-0.97-1.07-1.46-2.63-1.46c-0.84,0-1.59,0-2.24,0
		h-1.07c-1.04,0-1.56-0.21-1.56-0.64c0-0.42,0.39-0.67,1.16-0.73c7.23-0.32,13.01-1.85,17.33-4.57c0.52-0.26,0.87-0.39,1.06-0.39
		c0.52,0,0.77,0.52,0.77,1.56c0,2.85,0,4.7,0,5.55c3.44-4.48,7.85-6.71,13.23-6.71c5.58,0,9.21,1.95,10.9,5.84
		c0.71,1.62,1.15,3.44,1.31,5.45c0.16,2.01,0.24,6.16,0.24,12.45v14.11c0,2.01,0.16,3.2,0.49,3.55c0.32,0.36,1.38,0.53,3.16,0.53
		C345.36,498.46,346.25,498.72,346.25,499.24z"/>
	<path d="M400.34,440.67c0,1.69-0.54,3.08-1.61,4.18c-1.07,1.1-2.45,1.65-4.13,1.65c-1.69,0-3.06-0.5-4.13-1.51s-1.6-2.25-1.6-3.75
		c0-1.23,0.65-2.92,1.95-5.06c0.26-0.32,0.39-0.78,0.39-1.36c0-1.49-0.94-2.24-2.82-2.24c-1.49,0-2.79,0.81-3.89,2.43
		c-0.97,1.3-1.65,2.82-2.04,4.57c-0.39,1.75-0.58,4.83-0.58,9.24v8.85h6.91c0.78,0,1.17,0.25,1.17,0.74c0,0.31-0.19,0.52-0.58,0.64
		c-0.58,0.18-1.85,0.28-3.79,0.28c-0.45,0-1.69,0-3.7,0v34.26c0,2.13,0.06,3.36,0.19,3.69c0.32,0.71,1.33,1.04,3.02,0.97h2.82
		c0.84,0,1.26,0.29,1.26,0.88c0,0.52-0.42,0.78-1.26,0.78c-0.39,0-0.91-0.03-1.56-0.1c-1.95-0.19-4.41-0.29-7.39-0.29
		c-1.3,0-3.96,0.07-7.98,0.2c-4.02,0.13-6.23,0.19-6.62,0.19h-1.36c-0.78,0-1.17-0.23-1.17-0.68c0-0.52,1.1-0.81,3.31-0.88
		c1.75-0.07,2.77-0.28,3.06-0.64c0.29-0.36,0.44-1.61,0.44-3.76v-34.6h-5.16c-0.97,0-1.46-0.28-1.46-0.83
		c0-0.43,0.23-0.67,0.68-0.73c0.45-0.06,1.98-0.09,4.57-0.09h1.36v-2.04c0-3.89,0.68-7.68,2.04-11.38c1.36-3.7,3.15-6.55,5.35-8.56
		c3.18-2.92,7.13-4.38,11.87-4.38c3.7,0,6.7,0.86,9,2.58C399.19,435.63,400.34,437.88,400.34,440.67z"/>
	<path d="M427.77,463.83c0,1.88-0.55,3.42-1.65,4.62c-1.1,1.2-2.53,1.8-4.28,1.8c-3.5,0-5.25-1.62-5.25-4.86
		c0-1.1,0.42-2.2,1.26-3.31c0.19-0.26,0.29-0.49,0.29-0.68c0-0.58-0.42-0.88-1.25-0.88c-2.18,0-3.84,1.71-4.99,5.14
		c-0.64,1.94-0.96,6.7-0.96,14.26v7.08v8.54c0,1.75,0.88,2.68,2.63,2.81c1.04,0.07,2.27,0.1,3.7,0.1c0.71,0.07,1.07,0.29,1.07,0.68
		c0,0.52-0.29,0.78-0.88,0.78h-1.95c-0.58,0-3.41,0-8.46,0c0.26,0-1.2,0-4.38,0h-4.77h-3.7c-0.65,0-1.4,0-2.24,0
		c-0.71,0-1.07-0.21-1.07-0.63c0-0.42,0.45-0.63,1.36-0.63c2.66-0.06,4.26-0.34,4.82-0.82c0.55-0.48,0.83-1.92,0.83-4.32l-0.1-26.2
		c0-2.2-0.31-3.72-0.92-4.56c-0.62-0.84-1.99-1.36-4.13-1.55c-1.69-0.12-2.64-0.21-2.87-0.27c-0.23-0.06-0.34-0.27-0.34-0.64
		c0-0.36,0.26-0.55,0.78-0.55c0.58,0,1.13,0,1.65,0h1.95c4.99,0,10.38-1.04,16.15-3.11c0.32,1.3,0.49,2.79,0.49,4.47v4.09
		c1.23-3.14,2.58-5.35,4.04-6.64c1.46-1.28,3.36-1.92,5.69-1.92c2.2,0,4,0.68,5.4,2.04C427.08,460.03,427.77,461.75,427.77,463.83z"
		/>
	<path d="M473.4,494.67c0,0.53-0.52,1.25-1.56,2.17c-2.79,2.57-6.23,3.85-10.31,3.85c-2.66,0-4.59-0.56-5.79-1.67
		c-1.2-1.12-2-3.12-2.38-6.01c-2.92,5.32-6.91,7.98-11.97,7.98c-2.79,0-5.04-0.88-6.76-2.63s-2.58-4.02-2.58-6.81
		c0-8.17,7.01-13,21.01-14.5v-2.04c0-6.48-0.23-10.47-0.68-11.97l-0.1-0.49c-0.91-3.24-3.21-4.86-6.91-4.86
		c-2.14,0-3.86,0.62-5.16,1.85c-1.3,1.23-1.95,2.43-1.95,3.6c0,0.65,0.78,1.04,2.34,1.17c2.34,0.2,3.5,1.62,3.5,4.28
		c0,1.43-0.47,2.61-1.41,3.55c-0.94,0.94-2.16,1.41-3.65,1.41c-1.88,0-3.42-0.57-4.62-1.7c-1.2-1.13-1.8-2.58-1.8-4.33
		c0-2.79,1.39-5.32,4.18-7.59c2.79-2.27,6.45-3.41,10.99-3.41c6.74,0,11.45,1.2,14.11,3.6c2.14,2.01,3.21,5.51,3.21,10.51v16.64
		c0,3.24,0.03,5.12,0.1,5.64c0.32,2.72,1.26,4.09,2.82,4.09c1.1,0,2.46-0.78,4.09-2.34c0.32-0.32,0.58-0.49,0.78-0.49
		C473.24,494.18,473.4,494.35,473.4,494.67z M453.07,483.09v-4.77c-6.29,1.23-9.44,4.8-9.44,10.7c0,4.54,1.56,6.81,4.67,6.81
		c1.75,0,2.98-0.97,3.7-2.92C452.71,490.97,453.07,487.7,453.07,483.09z"/>
	<path d="M524.48,499.24c0,0.52-0.81,0.78-2.43,0.78c-0.13,0-0.97,0-2.53,0c-1.56,0-3.83,0-6.81,0h-3.11h-8.37
		c-0.91,0-1.36-0.24-1.36-0.73c0-0.42,0.38-0.64,1.15-0.64h0.76c1.65,0,2.62-0.21,2.91-0.64c0.29-0.42,0.43-1.87,0.43-4.35V474.8
		c0-6.97-0.45-11.15-1.34-12.52c-0.77-1.17-2.14-1.76-4.12-1.76s-3.61,0.61-4.88,1.84c-1.28,1.23-1.92,2.78-1.92,4.66v29.41
		c0.13,0.78,0.4,1.28,0.83,1.51c0.42,0.23,1.47,0.37,3.16,0.44c0.52,0,0.78,0.2,0.78,0.58c0,0.39-0.23,0.61-0.68,0.68
		c-0.45,0.07-2.08,0.1-4.86,0.1c-2.79,0-5.09,0.03-6.91,0.1c-3.57,0.13-7.2,0.19-10.9,0.19c-0.78,0-1.17-0.23-1.17-0.68
		c0-0.52,0.99-0.78,2.97-0.78c1.98,0,3.13-0.39,3.45-1.16l0.29-1.36v-22.32c0-6.27-0.07-9.54-0.19-9.8
		c-0.19-0.97-1.07-1.46-2.63-1.46c-0.84,0-1.59,0-2.24,0h-1.07c-1.04,0-1.56-0.21-1.56-0.64c0-0.42,0.39-0.67,1.16-0.73
		c7.23-0.32,13.01-1.85,17.33-4.57c0.52-0.26,0.87-0.39,1.06-0.39c0.52,0,0.77,0.52,0.77,1.56c0,2.85,0,4.7,0,5.55
		c3.44-4.48,7.85-6.71,13.23-6.71c5.58,0,9.21,1.95,10.9,5.84c0.71,1.62,1.15,3.44,1.31,5.45c0.16,2.01,0.24,6.16,0.24,12.45v14.11
		c0,2.01,0.16,3.2,0.49,3.55c0.32,0.36,1.38,0.53,3.16,0.53C523.58,498.46,524.48,498.72,524.48,499.24z"/>
	<path d="M563.88,466.55c0,1.56-0.45,2.82-1.36,3.79c-0.91,0.97-2.08,1.46-3.5,1.46c-3.44,0-5.16-1.52-5.16-4.57
		c0-0.78,0.21-1.7,0.63-2.77c0.42-1.07,0.63-1.83,0.63-2.29c0-1.23-0.47-2.29-1.41-3.16c-0.94-0.88-2.09-1.31-3.45-1.31
		c-5.9,0-8.85,6.58-8.85,19.75c0,7.53,1.3,12.91,3.89,16.15c2.01,2.46,4.48,3.7,7.39,3.7c3.05,0,6.16-1.98,9.34-5.93
		c0.39-0.52,0.75-0.78,1.07-0.78c0.26,0,0.39,0.19,0.39,0.58c0,1.23-1.17,2.95-3.5,5.16c-3.37,3.18-7.43,4.77-12.16,4.77
		c-5.84,0-10.82-2.09-14.93-6.28c-4.12-4.18-6.18-9.26-6.18-15.23c0-6.48,2.17-11.95,6.52-16.39c4.34-4.44,9.7-6.67,16.05-6.67
		c4.09,0,7.54,0.97,10.36,2.92C562.47,461.4,563.88,463.76,563.88,466.55z"/>
	<path d="M592.19,499.24c0,0.45-0.29,0.68-0.87,0.68h-12.89h-9.3c-0.39,0-0.87,0-1.45,0c-0.52,0-0.81,0-0.87,0
		c-0.77,0-1.16-0.21-1.16-0.62c0-0.31,0.74-0.49,2.24-0.54c2.2-0.07,3.5-0.31,3.89-0.73c0.39-0.42,0.58-1.71,0.58-3.86v-28.06
		c0-2.48-0.21-3.96-0.63-4.45c-0.42-0.49-1.7-0.74-3.84-0.74c-1.36,0-2.16-0.03-2.38-0.1c-0.23-0.06-0.34-0.29-0.34-0.68
		c0-0.45,0.49-0.68,1.46-0.68c7.13-0.06,13.23-1.17,18.29-3.31c0.13,0.78,0.29,2.92,0.49,6.42v12.36v18.29
		c0,2.66,0.24,4.22,0.73,4.67c0.49,0.45,2.16,0.68,5.01,0.68C591.83,498.56,592.19,498.79,592.19,499.24z M585.38,437.56
		c0,1.82-0.63,3.37-1.89,4.67c-1.26,1.3-2.79,1.95-4.58,1.95c-1.86,0-3.42-0.62-4.68-1.85c-1.26-1.23-1.89-2.79-1.89-4.67
		c0-1.81,0.63-3.31,1.89-4.47c1.26-1.17,2.88-1.75,4.88-1.75c1.79,0,3.28,0.58,4.48,1.75C584.78,434.35,585.38,435.81,585.38,437.56
		z"/>
	<path d="M625.46,486.4c0,4.35-1.32,7.87-3.98,10.56c-2.65,2.69-6.08,4.04-10.28,4.04c-2.07,0-4.52-0.52-7.37-1.56
		c-2.33-0.84-3.85-1.26-4.56-1.26c-1.23,0-2.04,0.47-2.43,1.41c-0.39,0.94-0.68,1.41-0.87,1.41c-0.39,0-0.58-0.23-0.58-0.69
		c0-0.39,0.05-1.01,0.15-1.86c0.16-1.24,0.23-3.39,0.23-6.46c0-0.13,0-0.46,0-0.98s0-1.24,0-2.16v-1.66c0-0.72,0.16-1.08,0.48-1.08
		c0.39,0,0.68,0.49,0.87,1.46c0.58,3.44,2.23,6.31,4.94,8.61s5.75,3.45,9.11,3.45c2.13,0,3.86-0.67,5.18-2
		c1.32-1.33,1.99-3.06,1.99-5.2c0-1.69-0.62-3.11-1.85-4.28c-0.91-0.84-3.34-1.91-7.3-3.21c-4.86-1.62-8.38-3.58-10.56-5.89
		c-2.17-2.3-3.26-5.24-3.26-8.8c0-3.83,1.3-7.07,3.89-9.73c2.59-2.66,5.77-3.99,9.53-3.99c1.43,0,3.89,0.45,7.39,1.36
		c0.52,0.13,0.91,0.2,1.17,0.2c1.43,0,2.5-0.88,3.21-2.63c0.13-0.32,0.29-0.49,0.49-0.49c0.45,0,0.68,0.39,0.68,1.17l-0.1,1.85
		c-0.07,0.26-0.1,0.71-0.1,1.36c0,2.66,0.16,5.38,0.49,8.17v0.49c0,0.52-0.2,0.78-0.58,0.78c-0.32,0-0.58-0.29-0.78-0.88
		c-1.88-6.62-5.71-9.92-11.48-9.92c-2.14,0-3.91,0.58-5.3,1.75c-1.4,1.17-2.09,2.66-2.09,4.47c0,1.69,0.58,3.02,1.75,3.99
		c1.17,0.97,3.44,2.08,6.81,3.31c5.9,2.08,9.89,4.15,11.97,6.23C624.42,479.82,625.46,482.7,625.46,486.4z"/>
	<path d="M666.22,466.55c0,1.56-0.45,2.82-1.36,3.79c-0.91,0.97-2.08,1.46-3.5,1.46c-3.44,0-5.16-1.52-5.16-4.57
		c0-0.78,0.21-1.7,0.63-2.77c0.42-1.07,0.63-1.83,0.63-2.29c0-1.23-0.47-2.29-1.41-3.16c-0.94-0.88-2.09-1.31-3.45-1.31
		c-5.9,0-8.85,6.58-8.85,19.75c0,7.53,1.3,12.91,3.89,16.15c2.01,2.46,4.47,3.7,7.39,3.7c3.05,0,6.16-1.98,9.34-5.93
		c0.39-0.52,0.75-0.78,1.07-0.78c0.26,0,0.39,0.19,0.39,0.58c0,1.23-1.17,2.95-3.5,5.16c-3.37,3.18-7.43,4.77-12.16,4.77
		c-5.84,0-10.82-2.09-14.93-6.28c-4.12-4.18-6.18-9.26-6.18-15.23c0-6.48,2.17-11.95,6.52-16.39c4.35-4.44,9.7-6.67,16.05-6.67
		c4.09,0,7.54,0.97,10.36,2.92C664.81,461.4,666.22,463.76,666.22,466.55z"/>
	<path d="M713.4,479.2c0,6.94-2.72,12.55-8.17,16.83c-4.28,3.37-8.98,5.06-14.11,5.06c-6.1,0-11.37-2.19-15.81-6.57
		c-4.44-4.38-6.67-9.55-6.67-15.52c0-6.23,2.22-11.53,6.67-15.91c4.44-4.38,9.81-6.57,16.1-6.57c6.03,0,11.2,2.22,15.52,6.67
		C711.25,467.64,713.4,472.97,713.4,479.2z M698.71,479.3c0-8.04-0.55-13.56-1.64-16.54c-1.22-3.31-3.19-4.96-5.9-4.96
		c-2.51,0-4.48,1.74-5.9,5.2c-1.42,3.47-2.13,8.25-2.13,14.35c0,8.5,0.84,14.53,2.51,18.1c1.35,2.85,3.25,4.28,5.7,4.28
		c3.03,0,5.03-1.82,5.99-5.45C698.26,490.84,698.71,485.85,698.71,479.3z"/>
	<path d="M740.55,499.24c0,6.1-2.3,10.47-6.91,13.13c-3.05,1.75-5.8,2.63-8.27,2.63c-0.45,0-0.68-0.16-0.68-0.49
		c0-0.33,0.26-0.55,0.78-0.68c7.39-1.69,11.09-5.48,11.09-11.38c0-3.24-1.07-5.67-3.21-7.3c0,3.7-1.62,5.55-4.87,5.55
		c-1.82,0-3.29-0.6-4.43-1.8c-1.13-1.2-1.7-2.81-1.7-4.82c0-2.27,0.73-4.1,2.19-5.5c1.46-1.39,3.39-2.09,5.79-2.09
		c3.11,0,5.59,1.15,7.44,3.45C739.62,492.25,740.55,495.35,740.55,499.24z"/>
	<path d="M800.86,466.55c0,1.56-0.45,2.82-1.36,3.79c-0.91,0.97-2.08,1.46-3.5,1.46c-3.44,0-5.16-1.52-5.16-4.57
		c0-0.78,0.21-1.7,0.63-2.77c0.42-1.07,0.63-1.83,0.63-2.29c0-1.23-0.47-2.29-1.41-3.16c-0.94-0.88-2.09-1.31-3.45-1.31
		c-5.9,0-8.85,6.58-8.85,19.75c0,7.53,1.3,12.91,3.89,16.15c2.01,2.46,4.47,3.7,7.39,3.7c3.05,0,6.16-1.98,9.34-5.93
		c0.39-0.52,0.75-0.78,1.07-0.78c0.26,0,0.39,0.19,0.39,0.58c0,1.23-1.17,2.95-3.5,5.16c-3.37,3.18-7.43,4.77-12.16,4.77
		c-5.84,0-10.82-2.09-14.93-6.28c-4.12-4.18-6.18-9.26-6.18-15.23c0-6.48,2.17-11.95,6.52-16.39c4.35-4.44,9.7-6.67,16.05-6.67
		c4.09,0,7.54,0.97,10.36,2.92C799.45,461.4,800.86,463.76,800.86,466.55z"/>
	<path d="M846.1,494.67c0,0.53-0.52,1.25-1.56,2.17c-2.79,2.57-6.23,3.85-10.31,3.85c-2.66,0-4.59-0.56-5.79-1.67
		c-1.2-1.12-1.99-3.12-2.38-6.01c-2.92,5.32-6.91,7.98-11.97,7.98c-2.79,0-5.04-0.88-6.76-2.63c-1.72-1.75-2.58-4.02-2.58-6.81
		c0-8.17,7-13,21.01-14.5v-2.04c0-6.48-0.23-10.47-0.68-11.97l-0.1-0.49c-0.91-3.24-3.21-4.86-6.91-4.86
		c-2.14,0-3.86,0.62-5.15,1.85c-1.3,1.23-1.95,2.43-1.95,3.6c0,0.65,0.78,1.04,2.33,1.17c2.34,0.2,3.5,1.62,3.5,4.28
		c0,1.43-0.47,2.61-1.41,3.55c-0.94,0.94-2.16,1.41-3.65,1.41c-1.88,0-3.42-0.57-4.62-1.7s-1.8-2.58-1.8-4.33
		c0-2.79,1.39-5.32,4.18-7.59c2.79-2.27,6.45-3.41,10.99-3.41c6.75,0,11.45,1.2,14.11,3.6c2.14,2.01,3.21,5.51,3.21,10.51v16.64
		c0,3.24,0.03,5.12,0.1,5.64c0.32,2.72,1.26,4.09,2.82,4.09c1.1,0,2.46-0.78,4.09-2.34c0.32-0.32,0.58-0.49,0.78-0.49
		C845.94,494.18,846.1,494.35,846.1,494.67z M825.77,483.09v-4.77c-6.29,1.23-9.44,4.8-9.44,10.7c0,4.54,1.56,6.81,4.67,6.81
		c1.75,0,2.98-0.97,3.7-2.92C825.41,490.97,825.77,487.7,825.77,483.09z"/>
	<path d="M871.88,499.19c0,0.49-1.23,0.73-3.68,0.73c-0.58,0-2.39-0.07-5.43-0.19c-1.55-0.06-3.07-0.1-4.56-0.1
		c-1.42,0-4.07,0.07-7.95,0.19l-2.91,0.1c-1.42,0.06-2.13-0.16-2.13-0.68c0-0.52,0.75-0.74,2.24-0.68c2.27,0.07,3.58-0.16,3.94-0.68
		c0.36-0.52,0.54-2.46,0.54-5.83v-51.19c0-2.2-0.23-3.51-0.69-3.93c-0.46-0.42-1.81-0.63-4.04-0.63c-1.64,0-2.47-0.24-2.47-0.72
		c0-0.55,0.84-0.86,2.52-0.93c7.23-0.26,13.14-1.36,17.72-3.31c0,1.95,0,13.33,0,34.15v24.22c0,4.41,0.11,6.99,0.34,7.73
		c0.23,0.75,1.02,1.09,2.38,1.02h2.92C871.46,498.46,871.88,498.7,871.88,499.19z"/>
	<path d="M899.9,499.24c0,0.45-0.29,0.68-0.87,0.68h-12.89h-9.31c-0.39,0-0.87,0-1.45,0c-0.52,0-0.81,0-0.87,0
		c-0.77,0-1.16-0.21-1.16-0.62c0-0.31,0.75-0.49,2.24-0.54c2.2-0.07,3.5-0.31,3.89-0.73c0.39-0.42,0.58-1.71,0.58-3.86v-28.06
		c0-2.48-0.21-3.96-0.63-4.45c-0.42-0.49-1.7-0.74-3.84-0.74c-1.36,0-2.16-0.03-2.38-0.1c-0.23-0.06-0.34-0.29-0.34-0.68
		c0-0.45,0.49-0.68,1.46-0.68c7.13-0.06,13.23-1.17,18.29-3.31c0.13,0.78,0.29,2.92,0.49,6.42v12.36v18.29
		c0,2.66,0.24,4.22,0.73,4.67c0.49,0.45,2.16,0.68,5.01,0.68C899.54,498.56,899.9,498.79,899.9,499.24z M893.09,437.56
		c0,1.82-0.63,3.37-1.89,4.67c-1.26,1.3-2.79,1.95-4.58,1.95c-1.86,0-3.42-0.62-4.68-1.85c-1.26-1.23-1.89-2.79-1.89-4.67
		c0-1.81,0.63-3.31,1.89-4.47c1.26-1.17,2.89-1.75,4.88-1.75c1.79,0,3.28,0.58,4.48,1.75C892.49,434.35,893.09,435.81,893.09,437.56
		z"/>
	<path d="M939.49,440.67c0,1.69-0.53,3.08-1.61,4.18c-1.07,1.1-2.45,1.65-4.13,1.65c-1.69,0-3.06-0.5-4.14-1.51
		c-1.07-1.01-1.6-2.25-1.6-3.75c0-1.23,0.65-2.92,1.94-5.06c0.26-0.32,0.39-0.78,0.39-1.36c0-1.49-0.94-2.24-2.82-2.24
		c-1.49,0-2.79,0.81-3.89,2.43c-0.97,1.3-1.65,2.82-2.04,4.57s-0.58,4.83-0.58,9.24v8.85h6.91c0.78,0,1.17,0.25,1.17,0.74
		c0,0.31-0.19,0.52-0.58,0.64c-0.58,0.18-1.85,0.28-3.79,0.28c-0.45,0-1.69,0-3.7,0v34.26c0,2.13,0.07,3.36,0.2,3.69
		c0.32,0.71,1.33,1.04,3.02,0.97h2.82c0.84,0,1.26,0.29,1.26,0.88c0,0.52-0.42,0.78-1.26,0.78c-0.39,0-0.91-0.03-1.56-0.1
		c-1.95-0.19-4.41-0.29-7.39-0.29c-1.3,0-3.96,0.07-7.98,0.2c-4.02,0.13-6.23,0.19-6.62,0.19h-1.36c-0.78,0-1.17-0.23-1.17-0.68
		c0-0.52,1.1-0.81,3.31-0.88c1.75-0.07,2.77-0.28,3.06-0.64c0.29-0.36,0.44-1.61,0.44-3.76v-34.6h-5.16c-0.97,0-1.46-0.28-1.46-0.83
		c0-0.43,0.23-0.67,0.68-0.73c0.45-0.06,1.98-0.09,4.57-0.09h1.36v-2.04c0-3.89,0.68-7.68,2.04-11.38c1.36-3.7,3.14-6.55,5.35-8.56
		c3.18-2.92,7.13-4.38,11.87-4.38c3.7,0,6.7,0.86,9,2.58C938.34,435.63,939.49,437.88,939.49,440.67z"/>
	<path d="M975.68,479.2c0,6.94-2.72,12.55-8.17,16.83c-4.28,3.37-8.98,5.06-14.11,5.06c-6.1,0-11.37-2.19-15.81-6.57
		c-4.44-4.38-6.67-9.55-6.67-15.52c0-6.23,2.22-11.53,6.67-15.91c4.44-4.38,9.81-6.57,16.1-6.57c6.03,0,11.2,2.22,15.52,6.67
		C973.53,467.64,975.68,472.97,975.68,479.2z M960.99,479.3c0-8.04-0.55-13.56-1.64-16.54c-1.22-3.31-3.19-4.96-5.9-4.96
		c-2.51,0-4.48,1.74-5.9,5.2c-1.42,3.47-2.13,8.25-2.13,14.35c0,8.5,0.84,14.53,2.51,18.1c1.35,2.85,3.25,4.28,5.7,4.28
		c3.03,0,5.03-1.82,5.99-5.45C960.54,490.84,960.99,485.85,960.99,479.3z"/>
	<path d="M1016.35,463.83c0,1.88-0.55,3.42-1.65,4.62c-1.1,1.2-2.53,1.8-4.28,1.8c-3.5,0-5.26-1.62-5.26-4.86
		c0-1.1,0.42-2.2,1.26-3.31c0.2-0.26,0.29-0.49,0.29-0.68c0-0.58-0.42-0.88-1.25-0.88c-2.18,0-3.84,1.71-4.99,5.14
		c-0.64,1.94-0.96,6.7-0.96,14.26v7.08v8.54c0,1.75,0.88,2.68,2.63,2.81c1.04,0.07,2.27,0.1,3.7,0.1c0.71,0.07,1.07,0.29,1.07,0.68
		c0,0.52-0.29,0.78-0.88,0.78h-1.95c-0.58,0-3.41,0-8.46,0c0.26,0-1.2,0-4.38,0h-4.77h-3.7c-0.65,0-1.4,0-2.24,0
		c-0.72,0-1.07-0.21-1.07-0.63c0-0.42,0.45-0.63,1.36-0.63c2.66-0.06,4.26-0.34,4.82-0.82c0.55-0.48,0.83-1.92,0.83-4.32l-0.1-26.2
		c0-2.2-0.31-3.72-0.92-4.56c-0.62-0.84-1.99-1.36-4.13-1.55c-1.69-0.12-2.64-0.21-2.87-0.27c-0.23-0.06-0.34-0.27-0.34-0.64
		c0-0.36,0.26-0.55,0.78-0.55c0.58,0,1.13,0,1.65,0h1.94c4.99,0,10.38-1.04,16.15-3.11c0.32,1.3,0.49,2.79,0.49,4.47v4.09
		c1.23-3.14,2.58-5.35,4.04-6.64c1.46-1.28,3.36-1.92,5.69-1.92c2.2,0,4,0.68,5.4,2.04
		C1015.65,460.03,1016.35,461.75,1016.35,463.83z"/>
	<path d="M1069.76,499.24c0,0.52-0.81,0.78-2.43,0.78c-0.13,0-0.97,0-2.53,0c-1.56,0-3.83,0-6.81,0h-3.11h-8.37
		c-0.91,0-1.36-0.24-1.36-0.73c0-0.42,0.38-0.64,1.15-0.64h0.77c1.65,0,2.62-0.21,2.91-0.64c0.29-0.42,0.43-1.87,0.43-4.35V474.8
		c0-6.97-0.45-11.15-1.34-12.52c-0.77-1.17-2.14-1.76-4.12-1.76s-3.61,0.61-4.88,1.84c-1.28,1.23-1.92,2.78-1.92,4.66v29.41
		c0.13,0.78,0.4,1.28,0.83,1.51c0.42,0.23,1.47,0.37,3.16,0.44c0.52,0,0.78,0.2,0.78,0.58c0,0.39-0.23,0.61-0.68,0.68
		c-0.45,0.07-2.08,0.1-4.86,0.1s-5.09,0.03-6.91,0.1c-3.57,0.13-7.2,0.19-10.9,0.19c-0.78,0-1.17-0.23-1.17-0.68
		c0-0.52,0.99-0.78,2.97-0.78c1.98,0,3.13-0.39,3.45-1.16l0.29-1.36v-22.32c0-6.27-0.07-9.54-0.19-9.8
		c-0.2-0.97-1.07-1.46-2.63-1.46c-0.84,0-1.59,0-2.24,0h-1.07c-1.04,0-1.56-0.21-1.56-0.64c0-0.42,0.39-0.67,1.16-0.73
		c7.23-0.32,13-1.85,17.33-4.57c0.51-0.26,0.87-0.39,1.06-0.39c0.52,0,0.78,0.52,0.78,1.56c0,2.85,0,4.7,0,5.55
		c3.44-4.48,7.85-6.71,13.23-6.71c5.58,0,9.21,1.95,10.9,5.84c0.71,1.62,1.15,3.44,1.31,5.45c0.16,2.01,0.24,6.16,0.24,12.45v14.11
		c0,2.01,0.16,3.2,0.49,3.55c0.32,0.36,1.38,0.53,3.16,0.53C1068.87,498.46,1069.76,498.72,1069.76,499.24z"/>
	<path d="M1097.87,499.24c0,0.45-0.29,0.68-0.87,0.68h-12.89h-9.31c-0.39,0-0.87,0-1.45,0c-0.52,0-0.81,0-0.87,0
		c-0.77,0-1.16-0.21-1.16-0.62c0-0.31,0.75-0.49,2.24-0.54c2.2-0.07,3.5-0.31,3.89-0.73c0.39-0.42,0.58-1.71,0.58-3.86v-28.06
		c0-2.48-0.21-3.96-0.63-4.45c-0.42-0.49-1.7-0.74-3.84-0.74c-1.36,0-2.16-0.03-2.38-0.1c-0.23-0.06-0.34-0.29-0.34-0.68
		c0-0.45,0.49-0.68,1.46-0.68c7.13-0.06,13.23-1.17,18.29-3.31c0.13,0.78,0.29,2.92,0.49,6.42v12.36v18.29
		c0,2.66,0.24,4.22,0.73,4.67c0.49,0.45,2.16,0.68,5.01,0.68C1097.52,498.56,1097.87,498.79,1097.87,499.24z M1091.06,437.56
		c0,1.82-0.63,3.37-1.89,4.67c-1.26,1.3-2.79,1.95-4.58,1.95c-1.86,0-3.42-0.62-4.68-1.85c-1.26-1.23-1.89-2.79-1.89-4.67
		c0-1.81,0.63-3.31,1.89-4.47c1.26-1.17,2.89-1.75,4.88-1.75c1.79,0,3.28,0.58,4.48,1.75
		C1090.47,434.35,1091.06,435.81,1091.06,437.56z"/>
	<path d="M1143.11,494.67c0,0.53-0.52,1.25-1.56,2.17c-2.79,2.57-6.23,3.85-10.31,3.85c-2.66,0-4.59-0.56-5.79-1.67
		c-1.2-1.12-1.99-3.12-2.38-6.01c-2.92,5.32-6.91,7.98-11.97,7.98c-2.79,0-5.04-0.88-6.76-2.63c-1.72-1.75-2.58-4.02-2.58-6.81
		c0-8.17,7-13,21.01-14.5v-2.04c0-6.48-0.23-10.47-0.68-11.97l-0.1-0.49c-0.91-3.24-3.21-4.86-6.91-4.86
		c-2.14,0-3.86,0.62-5.15,1.85c-1.3,1.23-1.95,2.43-1.95,3.6c0,0.65,0.78,1.04,2.33,1.17c2.34,0.2,3.5,1.62,3.5,4.28
		c0,1.43-0.47,2.61-1.41,3.55c-0.94,0.94-2.16,1.41-3.65,1.41c-1.88,0-3.42-0.57-4.62-1.7s-1.8-2.58-1.8-4.33
		c0-2.79,1.39-5.32,4.18-7.59c2.79-2.27,6.45-3.41,10.99-3.41c6.75,0,11.45,1.2,14.11,3.6c2.14,2.01,3.21,5.51,3.21,10.51v16.64
		c0,3.24,0.03,5.12,0.1,5.64c0.32,2.72,1.26,4.09,2.82,4.09c1.1,0,2.46-0.78,4.09-2.34c0.32-0.32,0.58-0.49,0.78-0.49
		C1142.95,494.18,1143.11,494.35,1143.11,494.67z M1122.78,483.09v-4.77c-6.29,1.23-9.44,4.8-9.44,10.7c0,4.54,1.56,6.81,4.67,6.81
		c1.75,0,2.98-0.97,3.7-2.92C1122.42,490.97,1122.78,487.7,1122.78,483.09z"/>
</g>
<path d="M337.01,330.6c0,3.75-2.22,8.69-6.65,14.82c-9.55,13.12-21.98,19.68-37.32,19.68c-17.21,0-31.36-5.45-42.43-16.36
	c-11.08-10.9-16.61-24.88-16.61-41.92c0-16.7,5.37-30.63,16.1-41.79c10.74-11.16,24.11-16.74,40.13-16.74
	c10.9,0,20.19,2.39,27.86,7.16c8.52,5.28,14.06,12.87,16.62,22.75c0.68,3.07,1.19,6.73,1.53,10.99c-3.92,0.45-19.68,0.8-47.29,1.02
	c-4.26,0-9.63,0.17-16.1,0.51c-0.51,6.11-0.77,11.29-0.77,15.53c0,19.86,4.17,33.95,12.53,42.27c4.94,4.92,10.99,7.38,18.15,7.38
	c5.96,0,11.71-2.05,17.25-6.13c5.54-4.09,9.75-9.37,12.65-15.85c1.36-3.23,2.47-4.86,3.32-4.86
	C336.67,329.06,337.01,329.57,337.01,330.6z M304.81,285.86c0.17-13.03-0.77-22.08-2.81-27.15c-2.04-5.07-5.62-7.61-10.74-7.61
	c-10.4,0-16.36,11.59-17.89,34.77c3.58,0,11.08,0,22.49,0C299.27,285.86,302.25,285.86,304.81,285.86z"/>
<path d="M479.9,264.65c0,9.03-4.35,13.55-13.04,13.55c-8.01,0-12.01-3.66-12.01-10.99c0-1.19,0.3-2.56,0.89-4.09
	c0.6-1.54,0.9-2.64,0.9-3.32c0-2.9-1.53-4.35-4.6-4.35c-2.05,0-3.96,0.89-5.75,2.68c-1.79,1.79-2.68,3.79-2.68,6.01
	c0,1.02,0.68,2.9,2.04,5.62c3.23,6.31,4.86,12.19,4.86,17.64c0,12.78-5.86,23.43-17.59,31.95c-9.01,6.48-20.05,9.71-33.13,9.71
	c-5.44,0-11.73-1.09-18.86-3.27c-1.87-0.54-3.49-0.82-4.84-0.82c-3.23,0-5.99,0.99-8.28,2.98c-2.29,1.99-3.44,4.45-3.44,7.38
	c0,6.21,4.84,9.32,14.53,9.32c7.31,0,18.19-1.02,32.63-3.07c3.57-0.51,6.97-0.77,10.2-0.77c11.38,0,20.22,2.86,26.51,8.56
	c6.29,5.71,9.43,13.76,9.43,24.16c0,16.7-6.43,29.99-19.3,39.88c-12.87,9.88-30.21,14.82-52.02,14.82
	c-15.34,0-27.48-2.69-36.43-8.06c-8.95-5.37-13.42-12.76-13.42-22.14c0-14.16,10.39-22.7,31.18-25.6
	c-12.44-4.95-18.66-12.45-18.66-22.53c0-13.65,8.01-22.95,24.03-27.9c-15.68-8.02-23.52-19.28-23.52-33.79
	c0-11.43,4.98-21.07,14.95-28.92c9.97-7.85,22.11-11.78,36.42-11.78c16.53,0,29.4,4.6,38.6,13.8c6.47-8.35,14.14-12.52,23-12.52
	C474.11,248.8,479.9,254.08,479.9,264.65z M444.37,388.36c0-12.61-7.41-18.92-22.24-18.92c-7.16,0-16.53,0.94-28.12,2.81
	c-8.35,1.36-14.57,2.05-18.66,2.05h-3.83c-4.77,5.79-7.16,12.95-7.16,21.47c0,18.06,11.76,27.1,35.27,27.1
	c12.61,0,23.22-3.32,31.82-9.97C440.06,406.26,444.37,398.08,444.37,388.36z M419.58,289.83c0-25.99-6.22-38.99-18.66-38.99
	c-12.44,0-18.66,11.8-18.66,35.39c0,14.2,1.53,24.37,4.6,30.52c3.07,6.16,8.18,9.23,15.34,9.23c6.65,0,11.2-2.6,13.68-7.82
	C418.34,312.96,419.58,303.51,419.58,289.83z"/>
<path d="M591.09,307.59c0,18.24-7.16,32.97-21.47,44.22c-11.25,8.86-23.6,13.29-37.06,13.29c-16.02,0-29.87-5.75-41.54-17.25
	c-11.67-11.5-17.51-25.09-17.51-40.77c0-16.36,5.84-30.29,17.51-41.79c11.67-11.5,25.77-17.25,42.3-17.25
	c15.85,0,29.44,5.84,40.77,17.51C585.42,277.21,591.09,291.23,591.09,307.59z M552.49,307.84c0-21.13-1.44-35.61-4.32-43.45
	c-3.22-8.69-8.39-13.04-15.5-13.04c-6.61,0-11.77,4.56-15.5,13.68c-3.73,9.12-5.59,21.69-5.59,37.7c0,22.33,2.2,38.17,6.61,47.54
	c3.55,7.5,8.55,11.25,14.99,11.25c7.96,0,13.21-4.77,15.75-14.31C551.31,338.18,552.49,325.06,552.49,307.84z"/>
<path d="M768.74,356.92c0,1.19-1.7,1.79-5.11,1.79h-11.5c-8.35-0.17-17.13,1.8-26.33,5.9c-1.02,0.33-1.62,0.49-1.79,0.49
	c-1.53,0-2.39-1.53-2.56-4.6c0-1.53-0.26-3.66-0.77-6.39c-6.82,7.33-15.85,10.99-27.09,10.99c-15,0-27.35-5.54-37.07-16.61
	c-9.71-11.08-14.57-25.13-14.57-42.18c0-17.38,4.94-31.4,14.83-42.05c9.88-10.65,22.92-15.98,39.11-15.98
	c10.56,0,19.17,3.92,25.82,11.76v-35.79c0-15.34-0.68-24.41-2.04-27.22c-1.37-2.81-5.88-4.13-13.55-3.96
	c-4.43,0-6.64-0.59-6.64-1.79c0-1.19,1.03-1.79,3.09-1.79c15.65,0,30.62-2.3,44.89-6.9c2.06-0.68,3.52-1.02,4.39-1.02
	c1.89,0,2.84,2.04,2.84,6.13v12.78v24.54v121.93c0,2.9,0.42,4.86,1.28,5.88c1.19,1.54,4.17,2.22,8.95,2.05
	C767.46,354.71,768.74,355.39,768.74,356.92z M721.71,333.92v-55.72c0-7.67-1.29-13.38-3.86-17.13c-3.26-4.77-7.8-7.16-13.63-7.16
	c-16.46,0-24.69,18.15-24.69,54.45c0,16.19,2.1,28.72,6.3,37.58c4.2,8.86,10.07,13.29,17.62,13.29c4.46,0,8.62-2,12.47-6.01
	C719.78,349.22,721.71,342.78,721.71,333.92z"/>
<path d="M878.65,330.6c0,3.75-2.21,8.69-6.64,14.82c-9.55,13.12-21.98,19.68-37.32,19.68c-17.21,0-31.36-5.45-42.43-16.36
	c-11.08-10.9-16.61-24.88-16.61-41.92c0-16.7,5.37-30.63,16.1-41.79c10.74-11.16,24.11-16.74,40.13-16.74
	c10.9,0,20.19,2.39,27.86,7.16c8.52,5.28,14.06,12.87,16.62,22.75c0.68,3.07,1.19,6.73,1.53,10.99c-3.92,0.45-19.68,0.8-47.29,1.02
	c-4.26,0-9.63,0.17-16.1,0.51c-0.51,6.11-0.77,11.29-0.77,15.53c0,19.86,4.17,33.95,12.52,42.27c4.94,4.92,10.99,7.38,18.15,7.38
	c5.96,0,11.71-2.05,17.25-6.13c5.53-4.09,9.75-9.37,12.65-15.85c1.36-3.23,2.47-4.86,3.32-4.86
	C878.31,329.06,878.65,329.57,878.65,330.6z M846.45,285.86c0.17-13.03-0.77-22.08-2.81-27.15c-2.05-5.07-5.62-7.61-10.74-7.61
	c-10.4,0-16.36,11.59-17.89,34.77c3.58,0,11.07,0,22.49,0C840.91,285.86,843.89,285.86,846.45,285.86z"/>
<path d="M1000.58,348.25c0,1.39-1.37,3.29-4.09,5.71c-7.33,6.75-16.36,10.12-27.1,10.12c-6.99,0-12.06-1.47-15.21-4.4
	c-3.15-2.93-5.24-8.19-6.26-15.79c-7.67,13.98-18.15,20.96-31.44,20.96c-7.33,0-13.25-2.3-17.77-6.9
	c-4.52-4.6-6.77-10.56-6.77-17.89c0-21.47,18.41-34.17,55.21-38.09v-5.37c0-17.04-0.6-27.52-1.79-31.44l-0.26-1.28
	c-2.39-8.52-8.44-12.78-18.15-12.78c-5.62,0-10.14,1.62-13.55,4.86c-3.41,3.24-5.11,6.39-5.11,9.46c0,1.7,2.05,2.73,6.13,3.07
	c6.13,0.51,9.2,4.26,9.2,11.25c0,3.75-1.24,6.86-3.71,9.33c-2.47,2.47-5.67,3.71-9.58,3.71c-4.95,0-8.99-1.49-12.14-4.47
	c-3.16-2.98-4.73-6.77-4.73-11.37c0-7.32,3.66-13.97,10.99-19.94c7.32-5.96,16.95-8.95,28.88-8.95c17.72,0,30.07,3.16,37.06,9.46
	c5.62,5.28,8.44,14.49,8.44,27.61v43.71c0,8.52,0.08,13.46,0.26,14.83c0.85,7.16,3.32,10.74,7.41,10.74c2.89,0,6.48-2.05,10.74-6.13
	c0.85-0.85,1.53-1.28,2.05-1.28C1000.15,346.95,1000.58,347.39,1000.58,348.25z M947.16,317.81v-12.53
	c-16.53,3.24-24.79,12.61-24.79,28.12c0,11.93,4.09,17.89,12.27,17.89c4.6,0,7.84-2.56,9.71-7.67
	C946.22,338.52,947.16,329.92,947.16,317.81z"/>
<path d="M1128.64,356.92c0,1.19-1.7,1.79-5.11,1.79h-11.5c-8.35-0.17-17.13,1.8-26.33,5.9c-1.02,0.33-1.62,0.49-1.79,0.49
	c-1.53,0-2.39-1.53-2.56-4.6c0-1.53-0.26-3.66-0.77-6.39c-6.82,7.33-15.85,10.99-27.09,10.99c-15,0-27.35-5.54-37.07-16.61
	c-9.71-11.08-14.57-25.13-14.57-42.18c0-17.38,4.94-31.4,14.82-42.05c9.88-10.65,22.92-15.98,39.11-15.98
	c10.56,0,19.17,3.92,25.82,11.76v-35.79c0-15.34-0.68-24.41-2.04-27.22c-1.37-2.81-5.88-4.13-13.55-3.96
	c-4.43,0-6.64-0.59-6.64-1.79c0-1.19,1.03-1.79,3.09-1.79c15.65,0,30.62-2.3,44.89-6.9c2.06-0.68,3.52-1.02,4.39-1.02
	c1.89,0,2.84,2.04,2.84,6.13v12.78v24.54v121.93c0,2.9,0.42,4.86,1.28,5.88c1.19,1.54,4.17,2.22,8.95,2.05
	C1127.36,354.71,1128.64,355.39,1128.64,356.92z M1081.61,333.92v-55.72c0-7.67-1.29-13.38-3.86-17.13
	c-3.26-4.77-7.8-7.16-13.63-7.16c-16.46,0-24.69,18.15-24.69,54.45c0,16.19,2.1,28.72,6.3,37.58c4.2,8.86,10.07,13.29,17.62,13.29
	c4.46,0,8.62-2,12.47-6.01C1079.68,349.22,1081.61,342.78,1081.61,333.92z"/>
<path class="st0" d="M385.11,326.91c0,0.98-1.68,1.54-5.02,1.68c-2.79,0.14-4.64,0.6-5.55,1.37c-0.91,0.77-1.99,2.7-3.24,5.78
	c-2.51,6.16-7.15,18.84-13.92,38.02c-6.77,19.18-11.55,33.4-14.34,42.64c-0.7,2.52-1.6,3.78-2.72,3.78c-0.84,0-1.54-0.7-2.09-2.1
	c-0.84-2.1-2.16-5.32-3.98-9.67c-1.28-2.93-5.52-13.73-12.74-32.42c-0.97-2.66-2.91-7.69-5.81-15.1c-1.81,5.02-4.94,13.54-9.4,25.54
	c-2.93,8.16-6.36,18-10.27,29.53c-0.98,2.81-2.02,4.22-3.14,4.22c-0.7,0-1.47-1.12-2.31-3.36c-0.28-0.56-2.87-7.49-7.76-20.79
	c-7.82-21.15-15.65-40.96-23.47-59.44c-1.4-3.22-2.45-5.25-3.14-6.09c-1.12-1.26-3-1.89-5.66-1.89c-4.19,0.14-6.29-0.35-6.29-1.47
	c0-1.12,0.84-1.68,2.51-1.68h2.31c2.38,0,5.1,0.1,8.17,0.31c3.07,0.21,5.31,0.31,6.71,0.31c11.6,0,19.77-0.14,24.52-0.42
	c2.37-0.14,4.75-0.21,7.13-0.21c2.65,0,3.98,0.42,3.98,1.26c0,0.84-2.06,1.33-6.18,1.47c-4.12,0.14-6.18,1.26-6.18,3.35
	c0,1.4,3.21,10.83,9.64,28.29c2.79,7.54,5.24,14.67,7.34,21.38c1.4-3.21,3.56-8.87,6.5-16.98l9.64-26.62
	c2.93-8.1,5.1-12.16,6.5-12.16c1.12,0,3.36,4.12,6.71,12.37c1.26,3.22,3.63,9.15,7.13,17.81l6.92,16.35
	c0.56,1.12,1.75,3.77,3.56,7.96c10.62-28.03,15.93-44.16,15.93-48.39c0-1.83-1.33-2.89-3.98-3.17c-0.14,0-2.17,0-6.08,0
	c-2.38,0-3.56-0.52-3.56-1.56c0-0.91,0.77-1.37,2.31-1.37h10.06h12.57c0.98,0,2.02,0,3.14,0h1.68
	C384.48,325.44,385.11,325.93,385.11,326.91z"/>
<path class="st0" d="M466.01,390.83c0,3.08-1.82,7.13-5.45,12.16c-7.83,10.76-18.02,16.14-30.6,16.14
	c-14.11,0-25.71-4.47-34.79-13.41c-9.08-8.94-13.62-20.4-13.62-34.37c0-13.69,4.4-25.12,13.2-34.27c8.8-9.15,19.77-13.73,32.9-13.73
	c8.94,0,16.56,1.96,22.84,5.87c6.98,4.33,11.53,10.55,13.62,18.65c0.56,2.51,0.98,5.52,1.26,9.01c-3.22,0.37-16.14,0.65-38.77,0.84
	c-3.49,0-7.89,0.14-13.2,0.42c-0.42,5.01-0.63,9.25-0.63,12.73c0,16.29,3.42,27.84,10.27,34.66c4.05,4.04,9.01,6.05,14.88,6.05
	c4.89,0,9.61-1.68,14.15-5.03c4.54-3.35,8-7.68,10.37-12.99c1.12-2.65,2.02-3.98,2.73-3.98
	C465.72,389.57,466.01,389.99,466.01,390.83z M439.6,354.16c0.14-10.68-0.63-18.1-2.31-22.26c-1.68-4.16-4.61-6.24-8.8-6.24
	c-8.52,0-13.41,9.5-14.67,28.5c2.93,0,9.08,0,18.44,0C435.06,354.16,437.5,354.16,439.6,354.16z"/>
<path class="st1" d="M597.62,405.31c0,1.14-1.12,2.7-3.35,4.68c-6.01,5.53-13.41,8.3-22.22,8.3c-5.73,0-9.89-1.21-12.47-3.61
	c-2.59-2.4-4.3-6.72-5.14-12.95c-6.29,11.46-14.88,17.19-25.78,17.19c-6.01,0-10.87-1.89-14.57-5.66c-3.7-3.77-5.55-8.66-5.55-14.67
	c0-17.6,15.09-28.01,45.27-31.23v-4.4c0-13.97-0.49-22.56-1.47-25.78l-0.21-1.05c-1.96-6.99-6.92-10.48-14.88-10.48
	c-4.61,0-8.31,1.33-11.11,3.98c-2.8,2.66-4.19,5.24-4.19,7.76c0,1.4,1.68,2.24,5.03,2.51c5.03,0.42,7.54,3.49,7.54,9.22
	c0,3.08-1.02,5.63-3.04,7.65c-2.03,2.03-4.65,3.04-7.86,3.04c-4.05,0-7.37-1.22-9.96-3.67c-2.59-2.44-3.88-5.55-3.88-9.33
	c0-6.01,3-11.45,9.01-16.35c6.01-4.89,13.9-7.33,23.68-7.33c14.53,0,24.66,2.59,30.39,7.75c4.61,4.33,6.92,11.88,6.92,22.64v35.84
	c0,6.99,0.07,11.04,0.21,12.16c0.7,5.87,2.72,8.8,6.08,8.8c2.37,0,5.31-1.68,8.8-5.03c0.7-0.7,1.26-1.05,1.68-1.05
	C597.27,404.25,597.62,404.6,597.62,405.31z M553.81,380.35v-10.27c-13.55,2.65-20.33,10.34-20.33,23.05
	c0,9.78,3.35,14.67,10.06,14.67c3.77,0,6.43-2.1,7.96-6.29C553.04,397.33,553.81,390.28,553.81,380.35z"/>
<path class="st1" d="M676.21,338.86c0,4.06-1.19,7.37-3.56,9.96c-2.38,2.59-5.45,3.88-9.22,3.88c-7.55,0-11.32-3.49-11.32-10.48
	c0-2.38,0.91-4.75,2.72-7.13c0.42-0.56,0.63-1.05,0.63-1.47c0-1.26-0.9-1.89-2.69-1.89c-4.69,0-8.27,3.69-10.75,11.08
	c-1.38,4.18-2.07,14.43-2.07,30.73v15.26v18.4c0,3.76,1.89,5.78,5.66,6.06c2.23,0.14,4.89,0.21,7.96,0.21
	c1.54,0.14,2.31,0.63,2.31,1.47c0,1.12-0.63,1.68-1.89,1.68h-4.19c-1.26,0-7.34,0-18.23,0c0.56,0-2.59,0-9.43,0h-10.27h-7.96
	c-1.4,0-3.01,0-4.82,0c-1.54,0-2.31-0.45-2.31-1.36c0-0.91,0.98-1.36,2.93-1.36c5.73-0.14,9.19-0.73,10.37-1.78
	c1.19-1.05,1.78-4.14,1.78-9.3l-0.21-56.44c0-4.74-0.67-8.01-1.99-9.82c-1.33-1.81-4.3-2.93-8.91-3.35
	c-3.63-0.26-5.69-0.46-6.18-0.59c-0.49-0.13-0.73-0.59-0.73-1.37s0.56-1.18,1.68-1.18c1.26,0,2.44,0,3.56,0h4.19
	c10.76,0,22.35-2.23,34.79-6.71c0.7,2.8,1.05,6.01,1.05,9.64v8.8c2.65-6.77,5.55-11.53,8.7-14.3c3.14-2.76,7.23-4.15,12.26-4.15
	c4.75,0,8.63,1.47,11.63,4.4C674.71,330.68,676.21,334.39,676.21,338.86z"/>
<path class="st1" d="M766.74,390.83c0,3.08-1.82,7.13-5.45,12.16c-7.83,10.76-18.02,16.14-30.6,16.14
	c-14.11,0-25.71-4.47-34.79-13.41c-9.09-8.94-13.62-20.4-13.62-34.37c0-13.69,4.4-25.12,13.2-34.27c8.8-9.15,19.77-13.73,32.9-13.73
	c8.94,0,16.56,1.96,22.84,5.87c6.98,4.33,11.53,10.55,13.62,18.65c0.56,2.51,0.98,5.52,1.26,9.01c-3.22,0.37-16.14,0.65-38.77,0.84
	c-3.49,0-7.89,0.14-13.2,0.42c-0.42,5.01-0.63,9.25-0.63,12.73c0,16.29,3.42,27.84,10.27,34.66c4.05,4.04,9.01,6.05,14.88,6.05
	c4.89,0,9.6-1.68,14.15-5.03c4.54-3.35,8-7.68,10.37-12.99c1.12-2.65,2.02-3.98,2.73-3.98
	C766.46,389.57,766.74,389.99,766.74,390.83z M740.34,354.16c0.14-10.68-0.63-18.1-2.31-22.26c-1.68-4.16-4.61-6.24-8.8-6.24
	c-8.52,0-13.41,9.5-14.67,28.5c2.94,0,9.08,0,18.44,0C735.79,354.16,738.24,354.16,740.34,354.16z"/>
<path class="st2" d="M902.55,371.97c0,14.95-5.87,27.04-17.6,36.26c-9.22,7.27-19.35,10.9-30.39,10.9
	c-13.14,0-24.49-4.72-34.06-14.15c-9.57-9.43-14.36-20.57-14.36-33.43c0-13.41,4.78-24.84,14.36-34.27
	c9.57-9.43,21.13-14.15,34.68-14.15c12.99,0,24.14,4.79,33.43,14.36C897.9,347.07,902.55,358.56,902.55,371.97z M870.9,372.18
	c0-17.32-1.18-29.2-3.54-35.63c-2.64-7.13-6.88-10.69-12.71-10.69c-5.42,0-9.65,3.74-12.71,11.21c-3.06,7.48-4.58,17.78-4.58,30.91
	c0,18.3,1.81,31.3,5.42,38.98c2.91,6.15,7.01,9.22,12.29,9.22c6.53,0,10.83-3.91,12.92-11.74
	C869.93,397.05,870.9,386.29,870.9,372.18z"/>
<path class="st2" d="M1021.59,415.14c0,1.12-1.75,1.68-5.24,1.68c-0.28,0-2.1,0-5.45,0c-3.36,0-8.25,0-14.67,0h-6.71H971.5
	c-1.96,0-2.93-0.52-2.93-1.56c0-0.91,0.82-1.37,2.47-1.37h1.65c3.56,0,5.66-0.45,6.27-1.37c0.62-0.91,0.93-4.04,0.93-9.38v-40.66
	c0-15.02-0.96-24.01-2.89-26.96c-1.65-2.53-4.61-3.79-8.87-3.79c-4.26,0-7.77,1.33-10.52,3.97c-2.75,2.65-4.13,5.99-4.13,10.03
	v63.35c0.28,1.67,0.87,2.75,1.78,3.24c0.91,0.49,3.18,0.8,6.81,0.94c1.12,0,1.68,0.42,1.68,1.25c0,0.84-0.49,1.33-1.47,1.46
	c-0.98,0.14-4.47,0.2-10.48,0.2c-6.01,0-10.97,0.07-14.88,0.21c-7.69,0.28-15.51,0.42-23.47,0.42c-1.68,0-2.51-0.49-2.51-1.46
	c0-1.11,2.13-1.67,6.39-1.67c4.26,0,6.74-0.83,7.44-2.51l0.63-2.92v-48.08c0-13.52-0.14-20.55-0.42-21.11
	c-0.42-2.09-2.31-3.14-5.66-3.14c-1.82,0-3.43,0-4.82,0h-2.31c-2.24,0-3.35-0.45-3.35-1.37c0-0.91,0.83-1.43,2.5-1.57
	c15.58-0.7,28.02-3.98,37.34-9.85c1.11-0.56,1.87-0.84,2.29-0.84c1.11,0,1.67,1.12,1.67,3.35c0,6.15,0,10.13,0,11.94
	c7.4-9.64,16.91-14.46,28.5-14.46c12.02,0,19.84,4.19,23.47,12.57c1.54,3.49,2.48,7.41,2.83,11.74c0.35,4.33,0.52,13.28,0.52,26.83
	v30.39c0,4.33,0.35,6.88,1.05,7.65c0.7,0.77,2.97,1.15,6.81,1.15C1019.67,413.47,1021.59,414.03,1021.59,415.14z"/>
<path class="st2" d="M1110.87,390.83c0,3.08-1.82,7.13-5.45,12.16c-7.83,10.76-18.02,16.14-30.6,16.14
	c-14.11,0-25.71-4.47-34.79-13.41c-9.08-8.94-13.62-20.4-13.62-34.37c0-13.69,4.4-25.12,13.2-34.27c8.8-9.15,19.77-13.73,32.9-13.73
	c8.94,0,16.56,1.96,22.84,5.87c6.99,4.33,11.53,10.55,13.62,18.65c0.56,2.51,0.98,5.52,1.26,9.01c-3.22,0.37-16.14,0.65-38.77,0.84
	c-3.49,0-7.89,0.14-13.2,0.42c-0.42,5.01-0.63,9.25-0.63,12.73c0,16.29,3.42,27.84,10.27,34.66c4.05,4.04,9.01,6.05,14.88,6.05
	c4.89,0,9.6-1.68,14.15-5.03c4.54-3.35,8-7.68,10.37-12.99c1.12-2.65,2.02-3.98,2.72-3.98
	C1110.59,389.57,1110.87,389.99,1110.87,390.83z M1084.46,354.16c0.14-10.68-0.63-18.1-2.31-22.26c-1.68-4.16-4.61-6.24-8.8-6.24
	c-8.52,0-13.41,9.5-14.67,28.5c2.93,0,9.08,0,18.44,0C1079.92,354.16,1082.37,354.16,1084.46,354.16z"/>
</svg>
